<svg width="215" height="188" viewBox="0 0 215 188" fill="none" xmlns="http://www.w3.org/2000/svg">
<path d="M20.0218 169.013H38.1391V175.917H8.62036V171.186L26.6856 145.615H8.51624V138.685H37.9569V143.287L20.0218 169.013Z" fill="#FF5C01" fill-opacity="0.9"/>
<path d="M72.0309 138.685V163.054C72.0309 165.816 71.4322 168.211 70.2348 170.24C69.0374 172.252 67.3194 173.786 65.0808 174.843C62.8421 175.9 60.1957 176.428 57.1414 176.428C52.5253 176.428 48.8897 175.252 46.2346 172.9C43.5795 170.547 42.2259 167.325 42.1738 163.233V138.685H51.3626V163.412C51.4668 167.487 53.393 169.524 57.1414 169.524C59.033 169.524 60.4647 169.013 61.4365 167.99C62.4083 166.967 62.8942 165.305 62.8942 163.003V138.685H72.0309Z" fill="#FF5C01" fill-opacity="0.9"/>
<path d="M77.7577 175.917V138.685H91.3717C96.2481 138.685 99.9531 139.563 102.487 141.318C105.038 143.074 106.313 145.623 106.313 148.964C106.313 150.891 105.862 152.536 104.96 153.9C104.057 155.264 102.73 156.269 100.977 156.917C102.955 157.429 104.474 158.383 105.532 159.781C106.591 161.179 107.12 162.884 107.12 164.896C107.12 168.544 105.94 171.289 103.58 173.13C101.237 174.954 97.7579 175.883 93.1418 175.917H77.7577ZM86.8944 160.088V169.013H92.8815C94.5301 169.013 95.7969 168.646 96.6819 167.913C97.567 167.163 98.0095 166.115 98.0095 164.768C98.0095 161.665 96.439 160.105 93.298 160.088H86.8944ZM86.8944 154.207H91.658C93.6537 154.19 95.0767 153.832 95.927 153.133C96.7774 152.434 97.2025 151.402 97.2025 150.038C97.2025 148.47 96.7427 147.345 95.8229 146.663C94.9032 145.964 93.4194 145.615 91.3717 145.615H86.8944V154.207Z" fill="#FF5C01" fill-opacity="0.9"/>
<path d="M126.253 162.773H121.307V175.917H112.17V138.685H127.086C131.58 138.685 135.094 139.665 137.628 141.625C140.162 143.586 141.429 146.356 141.429 149.936C141.429 152.527 140.891 154.675 139.815 156.38C138.756 158.085 137.09 159.466 134.817 160.523L142.73 175.533V175.917H132.943L126.253 162.773ZM121.307 155.843H127.086C128.821 155.843 130.123 155.4 130.99 154.513C131.875 153.61 132.318 152.357 132.318 150.754C132.318 149.152 131.875 147.899 130.99 146.995C130.105 146.075 128.804 145.615 127.086 145.615H121.307V155.843Z" fill="#FF5C01" fill-opacity="0.9"/>
<path d="M204.156 94.6882V85.0728C211.751 100.433 209.369 89.6422 204.156 78.5024C200.662 71.0391 189.98 56.4321 184.118 53.8123C180.329 47.3593 153.578 -14.1833 95.8286 28.9395C48.6235 64.1885 23.7572 52.4341 23.5597 62.9285C23.3621 73.4228 29.235 75.6721 15.7542 97.2741C8.94393 100.678 5.99991 106.329 6 114.799C33.0949 84.1303 29.235 71.2051 29.235 71.2051C34.0002 102.978 10.6666 133.652 10.6666 133.652H39.8335C78.3339 103.019 117.818 112.638 117.818 112.638L109.834 133.609L141.334 133.652L155.318 100.433C155.318 100.433 168.34 93.5931 155.318 117.925L189.544 112.213L194.459 106.793L197.692 98.3985L204.156 94.6882Z" fill="#FF5C01" fill-opacity="0.9"/>
<path d="M177.106 74.5168L183.317 84.5846C186.329 84.5846 191.862 84.3609 189.905 83.466C187.947 82.5712 187.834 80.483 187.834 78.805C190.658 76.3812 198.94 77.8728 201.01 77.8728C192.277 72.5033 178.612 72.466 177.106 74.5168Z" fill="white"/>
<path d="M148 172.535C148 171.551 148.336 170.752 149.009 170.139C149.697 169.526 150.553 169.219 151.577 169.219C152.615 169.219 153.471 169.526 154.144 170.139C154.832 170.752 155.176 171.551 155.176 172.535C155.176 173.504 154.839 174.296 154.166 174.909C153.493 175.508 152.63 175.807 151.577 175.807C150.538 175.807 149.682 175.508 149.009 174.909C148.336 174.296 148 173.504 148 172.535Z" fill="#FF6C1A"/>
<path d="M170.624 171.016C171.794 171.016 172.745 170.702 173.476 170.075C174.208 169.447 174.588 168.613 174.618 167.572H180.564C180.55 169.141 180.111 170.581 179.248 171.893C178.385 173.191 177.2 174.203 175.693 174.93C174.201 175.643 172.548 176 170.734 176C167.34 176 164.662 174.952 162.702 172.856C160.742 170.745 159.762 167.836 159.762 164.128V163.722C159.762 160.157 160.735 157.312 162.68 155.187C164.626 153.062 167.296 152 170.69 152C173.659 152 176.037 152.827 177.821 154.481C179.621 156.121 180.535 158.31 180.564 161.048H174.618C174.588 159.85 174.208 158.881 173.476 158.139C172.745 157.383 171.78 157.005 170.58 157.005C169.102 157.005 167.983 157.533 167.223 158.588C166.476 159.629 166.103 161.326 166.103 163.679V164.321C166.103 166.702 166.476 168.414 167.223 169.455C167.969 170.496 169.102 171.016 170.624 171.016Z" fill="#FF6C1A"/>
<path d="M194.06 171.016C195.23 171.016 196.181 170.702 196.912 170.075C197.644 169.447 198.024 168.613 198.053 167.572H204C203.985 169.141 203.546 170.581 202.683 171.893C201.82 173.191 200.635 174.203 199.129 174.93C197.636 175.643 195.983 176 194.169 176C190.775 176 188.098 174.952 186.138 172.856C184.178 170.745 183.197 167.836 183.197 164.128V163.722C183.197 160.157 184.17 157.312 186.116 155.187C188.062 153.062 190.731 152 194.125 152C197.095 152 199.472 152.827 201.257 154.481C203.056 156.121 203.971 158.31 204 161.048H198.053C198.024 159.85 197.644 158.881 196.912 158.139C196.181 157.383 195.215 157.005 194.016 157.005C192.538 157.005 191.419 157.533 190.658 158.588C189.912 159.629 189.539 161.326 189.539 163.679V164.321C189.539 166.702 189.912 168.414 190.658 169.455C191.404 170.496 192.538 171.016 194.06 171.016Z" fill="#FF6C1A"/>
</svg>
