<svg width="201" height="211" viewBox="0 0 201 211" fill="none" xmlns="http://www.w3.org/2000/svg">
<g clip-path="url(#clip0)">
<g filter="url(#filter0_d)">
<circle cx="61.002" cy="34.8535" r="19.3321" fill="white"/>
</g>
<g filter="url(#filter1_d)">
<path d="M44.5437 56.2754H77.7216C80.8566 56.2754 82.6853 59.5845 83.2078 61.239L89.2164 73.7787L104.891 105.651C106.197 107.74 107.503 112.704 102.279 115.839C97.0537 118.974 93.3092 115.229 92.0901 112.965L83.2078 95.2007V111.92V155.809V188.987C82.9465 191.426 80.8566 196.302 74.5867 196.302C68.3169 196.302 66.2269 191.426 65.9657 188.987V135.171H56.2996V150.323V188.987C56.2996 191.426 54.5754 196.302 47.6786 196.302C40.7817 196.302 38.8834 191.426 38.7963 188.987V169.655V95.2007C36.1839 100.687 30.6977 112.182 29.6528 114.272C28.6078 116.362 26.6049 118.103 25.7341 118.713C24.3408 119.148 20.7182 119.34 17.3743 116.623C14.0304 113.906 14.936 110.092 15.8068 108.524L38.0126 63.329C38.7963 61.8486 40.625 58.6266 41.67 57.5816C42.7149 56.5366 44.0212 56.2754 44.5437 56.2754Z" fill="white"/>
</g>
<g filter="url(#filter2_d)">
<circle cx="87.6489" cy="34.8535" r="19.3321" fill="white"/>
</g>
<g filter="url(#filter3_d)">
<path d="M71.1906 56.2754H104.369C107.504 56.2754 109.332 59.5845 109.855 61.239L115.863 73.7787L131.538 105.651C132.844 107.74 134.15 112.704 128.926 115.839C123.701 118.974 119.956 115.229 118.737 112.965L109.855 95.2007V111.92V155.809V188.987C109.593 191.426 107.504 196.302 101.234 196.302C94.9638 196.302 92.8739 191.426 92.6126 188.987V135.171H82.9466V150.323V188.987C82.9466 191.426 81.2224 196.302 74.3256 196.302C67.4287 196.302 65.5303 191.426 65.4433 188.987V169.655V95.2007C62.8308 100.687 57.3447 112.182 56.2997 114.272C55.2547 116.362 53.2519 118.103 52.3811 118.713C50.9878 119.148 47.3652 119.34 44.0212 116.623C40.6773 113.906 41.583 110.092 42.4538 108.524L64.6595 63.329C65.4433 61.8486 67.272 58.6266 68.3169 57.5816C69.3619 56.5366 70.6681 56.2754 71.1906 56.2754Z" fill="white"/>
</g>
<g filter="url(#filter4_d)">
<circle cx="114.296" cy="34.8535" r="19.3321" fill="white"/>
</g>
<g filter="url(#filter5_d)">
<path d="M97.8374 56.2754H131.015C134.15 56.2754 135.979 59.5845 136.501 61.239L142.51 73.7787L158.185 105.651C159.491 107.74 160.797 112.704 155.572 115.839C150.347 118.974 146.603 115.229 145.384 112.965L136.501 95.2007V111.92V155.809V188.987C136.24 191.426 134.15 196.302 127.88 196.302C121.611 196.302 119.521 191.426 119.259 188.987V135.171H109.593V150.323V188.987C109.593 191.426 107.869 196.302 100.972 196.302C94.0754 196.302 92.1771 191.426 92.09 188.987V169.655V95.2007C89.4776 100.687 83.9914 112.182 82.9465 114.272C81.9015 116.362 79.8986 118.103 79.0278 118.713C77.6345 119.148 74.0119 119.34 70.668 116.623C67.3241 113.906 68.2297 110.092 69.1005 108.524L91.3063 63.329C92.09 61.8486 93.9187 58.6266 94.9637 57.5816C96.0086 56.5366 97.3149 56.2754 97.8374 56.2754Z" fill="white"/>
</g>
<g filter="url(#filter6_d)">
<circle cx="140.943" cy="34.3321" r="19.3321" fill="white"/>
</g>
<g filter="url(#filter7_d)">
<path d="M124.484 55.7539H157.662C160.797 55.7539 162.626 59.063 163.148 60.7175L169.157 73.2573L184.832 105.129C186.138 107.219 187.444 112.183 182.219 115.318C176.994 118.452 173.25 114.708 172.031 112.444L163.148 94.6793V111.399V155.288V188.466C162.887 190.904 160.797 195.781 154.527 195.781C148.258 195.781 146.168 190.904 145.906 188.466V134.65H136.24V149.802V188.466C136.24 190.904 134.516 195.781 127.619 195.781C120.722 195.781 118.824 190.904 118.737 188.466V169.134V94.6793C116.125 100.165 110.638 111.66 109.593 113.75C108.548 115.84 106.546 117.582 105.675 118.191C104.281 118.627 100.659 118.818 97.315 116.101C93.971 113.384 94.8767 109.57 95.7475 108.003L117.953 62.8075C118.737 61.3271 120.566 58.1051 121.611 57.0601C122.656 56.0152 123.962 55.7539 124.484 55.7539Z" fill="white"/>
</g>
</g>
<defs>
<filter id="filter0_d" x="14.6699" y="-7.47852" width="92.6641" height="92.6641" filterUnits="userSpaceOnUse" color-interpolation-filters="sRGB">
<feFlood flood-opacity="0" result="BackgroundImageFix"/>
<feColorMatrix in="SourceAlpha" type="matrix" values="0 0 0 0 0 0 0 0 0 0 0 0 0 0 0 0 0 0 127 0"/>
<feOffset dy="4"/>
<feGaussianBlur stdDeviation="13.5"/>
<feColorMatrix type="matrix" values="0 0 0 0 0 0 0 0 0 0 0 0 0 0 0 0 0 0 0.25 0"/>
<feBlend mode="normal" in2="BackgroundImageFix" result="effect1_dropShadow"/>
<feBlend mode="normal" in="SourceGraphic" in2="effect1_dropShadow" result="shape"/>
</filter>
<filter id="filter1_d" x="-3" y="42.2754" width="127.059" height="176.027" filterUnits="userSpaceOnUse" color-interpolation-filters="sRGB">
<feFlood flood-opacity="0" result="BackgroundImageFix"/>
<feColorMatrix in="SourceAlpha" type="matrix" values="0 0 0 0 0 0 0 0 0 0 0 0 0 0 0 0 0 0 127 0"/>
<feOffset dy="4"/>
<feGaussianBlur stdDeviation="9"/>
<feColorMatrix type="matrix" values="0 0 0 0 0 0 0 0 0 0 0 0 0 0 0 0 0 0 0.25 0"/>
<feBlend mode="normal" in2="BackgroundImageFix" result="effect1_dropShadow"/>
<feBlend mode="normal" in="SourceGraphic" in2="effect1_dropShadow" result="shape"/>
</filter>
<filter id="filter2_d" x="41.3169" y="-7.47852" width="92.6641" height="92.6641" filterUnits="userSpaceOnUse" color-interpolation-filters="sRGB">
<feFlood flood-opacity="0" result="BackgroundImageFix"/>
<feColorMatrix in="SourceAlpha" type="matrix" values="0 0 0 0 0 0 0 0 0 0 0 0 0 0 0 0 0 0 127 0"/>
<feOffset dy="4"/>
<feGaussianBlur stdDeviation="13.5"/>
<feColorMatrix type="matrix" values="0 0 0 0 0 0 0 0 0 0 0 0 0 0 0 0 0 0 0.25 0"/>
<feBlend mode="normal" in2="BackgroundImageFix" result="effect1_dropShadow"/>
<feBlend mode="normal" in="SourceGraphic" in2="effect1_dropShadow" result="shape"/>
</filter>
<filter id="filter3_d" x="23.647" y="42.2754" width="127.059" height="176.027" filterUnits="userSpaceOnUse" color-interpolation-filters="sRGB">
<feFlood flood-opacity="0" result="BackgroundImageFix"/>
<feColorMatrix in="SourceAlpha" type="matrix" values="0 0 0 0 0 0 0 0 0 0 0 0 0 0 0 0 0 0 127 0"/>
<feOffset dy="4"/>
<feGaussianBlur stdDeviation="9"/>
<feColorMatrix type="matrix" values="0 0 0 0 0 0 0 0 0 0 0 0 0 0 0 0 0 0 0.25 0"/>
<feBlend mode="normal" in2="BackgroundImageFix" result="effect1_dropShadow"/>
<feBlend mode="normal" in="SourceGraphic" in2="effect1_dropShadow" result="shape"/>
</filter>
<filter id="filter4_d" x="67.9636" y="-7.47852" width="92.6641" height="92.6641" filterUnits="userSpaceOnUse" color-interpolation-filters="sRGB">
<feFlood flood-opacity="0" result="BackgroundImageFix"/>
<feColorMatrix in="SourceAlpha" type="matrix" values="0 0 0 0 0 0 0 0 0 0 0 0 0 0 0 0 0 0 127 0"/>
<feOffset dy="4"/>
<feGaussianBlur stdDeviation="13.5"/>
<feColorMatrix type="matrix" values="0 0 0 0 0 0 0 0 0 0 0 0 0 0 0 0 0 0 0.25 0"/>
<feBlend mode="normal" in2="BackgroundImageFix" result="effect1_dropShadow"/>
<feBlend mode="normal" in="SourceGraphic" in2="effect1_dropShadow" result="shape"/>
</filter>
<filter id="filter5_d" x="50.2937" y="42.2754" width="127.059" height="176.027" filterUnits="userSpaceOnUse" color-interpolation-filters="sRGB">
<feFlood flood-opacity="0" result="BackgroundImageFix"/>
<feColorMatrix in="SourceAlpha" type="matrix" values="0 0 0 0 0 0 0 0 0 0 0 0 0 0 0 0 0 0 127 0"/>
<feOffset dy="4"/>
<feGaussianBlur stdDeviation="9"/>
<feColorMatrix type="matrix" values="0 0 0 0 0 0 0 0 0 0 0 0 0 0 0 0 0 0 0.25 0"/>
<feBlend mode="normal" in2="BackgroundImageFix" result="effect1_dropShadow"/>
<feBlend mode="normal" in="SourceGraphic" in2="effect1_dropShadow" result="shape"/>
</filter>
<filter id="filter6_d" x="94.6106" y="-8" width="92.6641" height="92.6641" filterUnits="userSpaceOnUse" color-interpolation-filters="sRGB">
<feFlood flood-opacity="0" result="BackgroundImageFix"/>
<feColorMatrix in="SourceAlpha" type="matrix" values="0 0 0 0 0 0 0 0 0 0 0 0 0 0 0 0 0 0 127 0"/>
<feOffset dy="4"/>
<feGaussianBlur stdDeviation="13.5"/>
<feColorMatrix type="matrix" values="0 0 0 0 0 0 0 0 0 0 0 0 0 0 0 0 0 0 0.25 0"/>
<feBlend mode="normal" in2="BackgroundImageFix" result="effect1_dropShadow"/>
<feBlend mode="normal" in="SourceGraphic" in2="effect1_dropShadow" result="shape"/>
</filter>
<filter id="filter7_d" x="76.9407" y="41.7539" width="127.059" height="176.027" filterUnits="userSpaceOnUse" color-interpolation-filters="sRGB">
<feFlood flood-opacity="0" result="BackgroundImageFix"/>
<feColorMatrix in="SourceAlpha" type="matrix" values="0 0 0 0 0 0 0 0 0 0 0 0 0 0 0 0 0 0 127 0"/>
<feOffset dy="4"/>
<feGaussianBlur stdDeviation="9"/>
<feColorMatrix type="matrix" values="0 0 0 0 0 0 0 0 0 0 0 0 0 0 0 0 0 0 0.25 0"/>
<feBlend mode="normal" in2="BackgroundImageFix" result="effect1_dropShadow"/>
<feBlend mode="normal" in="SourceGraphic" in2="effect1_dropShadow" result="shape"/>
</filter>
<clipPath id="clip0">
<rect width="201" height="211" fill="white"/>
</clipPath>
</defs>
</svg>
