<?xml version="1.0" encoding="utf-8"?>
<!-- Generator: Adobe Illustrator 21.0.0, SVG Export Plug-In . SVG Version: 6.00 Build 0)  -->
<svg version="1.1" id="Layer_1" xmlns="http://www.w3.org/2000/svg" xmlns:xlink="http://www.w3.org/1999/xlink" x="0px" y="0px"
	 viewBox="0 0 70 70" style="enable-background:new 0 0 70 70;" xml:space="preserve">
<style type="text/css">
	.st0{fill:#FFFFFF;}
	.st1{fill:#F8F9F9;}
	.st2{fill:#F9FAF6;}
	.st3{fill:#FAFBFA;}
	.st4{fill:#FBFBF7;}
	.st5{fill:#A24E45;}
	.st6{fill:#AB4F46;}
	.st7{fill:#FBF8FB;}
	.st8{fill:#FCFDFA;}
	.st9{fill:#F7F2EE;}
	.st10{fill:#F7FBF7;}
	.st11{fill:#F4F8F6;}
	.st12{fill:#9E4E47;}
	.st13{fill:#ECEBE9;}
	.st14{fill:#A54F46;}
	.st15{fill:#F5F4F2;}
	.st16{fill:#FDFBFA;}
	.st17{fill:#FEFAFC;}
	.st18{fill:#E5E4E5;}
	.st19{fill:#F7F6F7;}
	.st20{fill:#252523;}
	.st21{fill:#D2D0D1;}
	.st22{fill:#DCDBDC;}
	.st23{fill:#1D1E1C;}
	.st24{fill:#ECE3DF;}
	.st25{fill:#1D1D1B;}
	.st26{fill:#F6F6F7;}
	.st27{fill:#FCFBF7;}
	.st28{fill:#FDFAFC;}
	.st29{fill:#1E1F1B;}
	.st30{fill:#21211F;}
	.st31{fill:#1A1A19;}
	.st32{fill:#262623;}
	.st33{fill:#F7F4F2;}
	.st34{fill:#1A1A1B;}
	.st35{fill:#F3EEEC;}
	.st36{fill:#F4F9F8;}
	.st37{fill:#EBEBE2;}
	.st38{fill:#E8DAD3;}
	.st39{fill:#F0E4DB;}
	.st40{fill:#F6F2F0;}
	.st41{fill:#151516;}
	.st42{fill:#F5FAFA;}
	.st43{fill:#FBF1EB;}
	.st44{fill:#F1F8F4;}
	.st45{fill:#1A1B19;}
	.st46{fill:#FCF5F3;}
	.st47{fill:#1C1D1B;}
	.st48{fill:#272725;}
	.st49{fill:#9D4E47;}
	.st50{fill:#2D2E2C;}
	.st51{fill:#1B1C1A;}
	.st52{fill:#F5E3DC;}
	.st53{fill:#2F2F2E;}
	.st54{fill:#E1E0E1;}
	.st55{fill:#1D1D1C;}
	.st56{fill:#20201E;}
	.st57{fill:#BEBDBD;}
	.st58{fill:#F0E5E3;}
	.st59{fill:#E3D1C7;}
	.st60{fill:#FAEFEB;}
	.st61{fill:#F3F8F5;}
	.st62{fill:#161615;}
	.st63{fill:#161616;}
	.st64{fill:#F9FCFA;}
	.st65{fill:#E6EAE4;}
	.st66{fill:#FDF8FB;}
	.st67{fill:#974F49;}
	.st68{fill:#141515;}
	.st69{fill:#2F302E;}
	.st70{fill:#1C1E1C;}
	.st71{fill:#ECF5F2;}
	.st72{fill:#1E1E1C;}
	.st73{fill:#DBDADB;}
	.st74{fill:#864846;}
	.st75{fill:#D1A09E;}
	.st76{fill:#E7CFC4;}
	.st77{fill:#BEBDB9;}
	.st78{fill:#A87378;}
	.st79{fill:#252522;}
	.st80{fill:#F5FAFB;}
	.st81{fill:#171816;}
	.st82{fill:#EDEDED;}
	.st83{fill:#CBB9B3;}
	.st84{fill:#2C2A29;}
	.st85{fill:#F8FBF9;}
	.st86{fill:#313131;}
	.st87{fill:#F7FAF7;}
	.st88{fill:#75716E;}
	.st89{fill:#EBCBC1;}
	.st90{fill:#E2F0E5;}
	.st91{fill:#EAF4ED;}
	.st92{fill:#F1EEEA;}
	.st93{fill:#EFF7F9;}
	.st94{fill:#DCAEAC;}
	.st95{fill:#FBF5F8;}
	.st96{fill:#F4FAFA;}
	.st97{fill:#F1F4F4;}
	.st98{fill:#EAF4F1;}
	.st99{fill:#D3A69C;}
	.st100{fill:#F5F5F5;}
	.st101{fill:#754543;}
	.st102{fill:#9C4E48;}
	.st103{fill:#DC877E;}
	.st104{fill:#F3F8F3;}
	.st105{fill:#EBF5F4;}
	.st106{fill:#181D1B;}
	.st107{fill:#494A49;}
	.st108{fill:#C5C5C5;}
	.st109{fill:#F7F7F7;}
	.st110{fill:#F6E7E9;}
	.st111{fill:#F6FAF4;}
	.st112{fill:#E9D0CA;}
	.st113{fill:#A25149;}
	.st114{fill:#C1C6C4;}
	.st115{fill:#FBF2F4;}
	.st116{fill:#DFDFDF;}
	.st117{fill:#FCF3F1;}
	.st118{fill:#F5F6F6;}
	.st119{fill:#FBFCF3;}
	.st120{fill:#DAD9D9;}
	.st121{fill:#EFD8D1;}
	.st122{fill:#F6F6F6;}
	.st123{fill:#6F6F6F;}
	.st124{fill:#F6F7F7;}
	.st125{fill:#F4F4F4;}
	.st126{fill:#F5F5F6;}
	.st127{fill:#8F8F8F;}
	.st128{fill:#1B1B1A;}
	.st129{fill:#E8E7E8;}
	.st130{fill:#944D47;}
	.st131{fill:#A24E46;}
	.st132{fill:#7E4543;}
	.st133{fill:#E3F0EA;}
	.st134{fill:#EFD2CF;}
	.st135{fill:#A94F46;}
	.st136{fill:#A14F46;}
	.st137{fill:#F9EDE8;}
	.st138{fill:#ECF5EE;}
	.st139{fill:#854744;}
	.st140{fill:#714040;}
	.st141{fill:#F5E8DC;}
	.st142{fill:#303030;}
	.st143{fill:#A74F46;}
	.st144{fill:#F1E6DF;}
	.st145{fill:#99504E;}
	.st146{fill:#A35F60;}
	.st147{fill:#D9B0AD;}
	.st148{fill:#AA4F46;}
	.st149{fill:#AF4F46;}
	.st150{fill:#B24F46;}
	.st151{fill:#9D4F46;}
	.st152{fill:#A44F45;}
	.st153{fill:#B64F46;}
	.st154{fill:#AC4F46;}
	.st155{fill:#A34E45;}
	.st156{fill:#B94F46;}
	.st157{fill:#ECE7E0;}
	.st158{fill:#F6E0DA;}
	.st159{fill:#9D4F48;}
	.st160{fill:#F1E3DC;}
	.st161{fill:#E2CBC6;}
	.st162{fill:#844744;}
	.st163{fill:#7E4544;}
	.st164{fill:#794343;}
	.st165{fill:#BD8481;}
	.st166{fill:#924B45;}
	.st167{fill:#DEE7E4;}
	.st168{fill:#A14E45;}
	.st169{fill:#B44F47;}
	.st170{fill:#AE5047;}
	.st171{fill:#854641;}
	.st172{fill:#AE4F46;}
	.st173{fill:#A7514C;}
	.st174{fill:#C9A2A1;}
	.st175{fill:#C18883;}
	.st176{fill:#E1BCB8;}
	.st177{fill:#FAEBE1;}
	.st178{fill:#F2EDE2;}
	.st179{fill:#CF7673;}
	.st180{fill:#974F48;}
	.st181{fill:#80473E;}
	.st182{fill:#9D4E45;}
	.st183{fill:#C2BBB1;}
	.st184{fill:#864744;}
	.st185{fill:#A35047;}
	.st186{fill:#F3E1D4;}
	.st187{fill:#6B3F3D;}
	.st188{fill:#6C403C;}
	.st189{fill:#DFBAAE;}
	.st190{fill:#A04E46;}
	.st191{fill:#9C4D46;}
	.st192{fill:#C67B73;}
	.st193{fill:#C69892;}
	.st194{fill:#984E45;}
	.st195{fill:#804645;}
	.st196{fill:#4B4B4B;}
	.st197{fill:#A65147;}
	.st198{fill:#8B4944;}
	.st199{fill:#DBB8AD;}
	.st200{fill:#C48279;}
	.st201{fill:#A34E46;}
	.st202{fill:#B84F46;}
	.st203{fill:#C18079;}
	.st204{fill:#A84F46;}
	.st205{fill:#9B4F48;}
	.st206{fill:#ECBAC1;}
	.st207{fill:#BC6C67;}
	.st208{fill:#A54E46;}
	.st209{fill:#A74E46;}
	.st210{fill:#BA4F46;}
	.st211{fill:#AD4F46;}
	.st212{fill:#A74F45;}
	.st213{fill:#A64F46;}
	.st214{fill:#A64F45;}
	.st215{fill:#B04F46;}
	.st216{fill:#894944;}
	.st217{fill:#AD5047;}
	.st218{fill:#A44E45;}
	.st219{fill:#9B4D46;}
	.st220{fill:#B34F46;}
	.st221{fill:#9F4E45;}
	.st222{fill:#A14E46;}
	.st223{fill:#A34F46;}
	.st224{fill:#A05048;}
	.st225{fill:#B74F46;}
	.st226{fill:#B14F46;}
	.st227{fill:#9A4D46;}
	.st228{fill:#A96867;}
	.st229{fill:#BD4F45;}
	.st230{fill:#844745;}
	.st231{fill:#934B47;}
	.st232{fill:#9D4D45;}
	.st233{fill:#A9544A;}
	.st234{fill:#944C46;}
	.st235{fill:#B54F46;}
	.st236{fill:#E7A7A6;}
	.st237{fill:#9B564A;}
	.st238{fill:#D0807E;}
	.st239{fill:#B36E6D;}
	.st240{fill:#A34F4D;}
	.st241{fill:#964D49;}
	.st242{fill:#AF5146;}
	.st243{fill:#B15146;}
	.st244{fill:#9C4E45;}
</style>
<path class="st0" d="M67,16.7c0-0.1,0.1-0.3,0.1-0.4c0.1,0.2,0.1,0.4,0.4,0.4c0.1,0,0.2,0,0.3,0c0-0.9,0-1.9-1.4-1.4
	c-0.2-0.3-0.5-0.5-0.7-0.8c-0.5-0.2-0.8,0-1,0.5c0,0.1,0,0.2,0,0.2c-0.2,0-0.3,0-0.5,0.1c0,0,0,0,0,0c0,0,0,0,0,0
	c-0.8-0.7-1.4,0.6-2.1,0.3c-0.1,0-0.2,0.1-0.3,0.1c-0.2-0.2-0.5-0.3-0.7-0.5c-0.5-0.1-0.9-0.3-1.4-0.4c0-0.1,0-0.2-0.1-0.2
	c-0.2-0.3-0.5-0.2-0.8-0.2c-0.1,0.1-0.2,0.1-0.3,0.2c0,0.2,0,0.5-0.1,0.7c-0.1,0-0.2,0-0.2,0.1c-0.2,0.1-0.4,0.2-0.4,0.4
	c-0.3-0.1-0.6-0.3-0.9-0.5c-0.3-0.1-0.6-0.2-0.9-0.3c-0.5,0-0.9-0.1-1.4-0.1c-0.1-0.1-0.3-0.1-0.4-0.1c-0.3,0.1-0.6,0.2-0.7,0.5
	c0,0.1,0,0.2,0.1,0.3c-0.1,0.1-0.1,0.1-0.1,0.2c0,0,0,0.1,0,0.1c-0.2-0.1-0.4-0.2-0.6-0.2c-0.8,0.4-1.5,0-2.2-0.1
	c-0.2,0-0.4,0-0.7,0c-0.4,0.6-1,0-1.5,0.2c-1.1,0.7-1.9-0.9-3-0.5c-0.2,0.1-0.3,0.2-0.4,0.3c-0.2,0-0.5,0-0.7-0.1
	c-0.4-0.2-0.8-0.1-1.3-0.1c-0.4,0.5,0,0.7,0.3,0.9c-0.1,0-0.1,0-0.2,0.1c-0.1-0.1-0.3-0.2-0.4-0.3c-0.2-0.1-0.3-0.2-0.5-0.3
	c0-0.8-0.9-0.2-1.1-0.6c-0.1,0-0.2,0-0.3,0c-0.2,0.2-0.5,0.4-0.8,0.7c-0.2,0-0.2,0.1-0.3,0.2c-0.1,0-0.1-0.1-0.2-0.1
	c-0.9-0.6-1.9-0.2-2.8,0c-0.1,0-0.3,0.1-0.4,0.1c-0.6-0.3-1.1-0.3-1.7,0c0,0-0.1,0-0.1,0c-0.1,0-0.3-0.1-0.4-0.1
	c-0.4-0.1-0.8-0.1-1.2,0c-0.5,0.7-0.6-0.3-1-0.2c-0.5,0.1-1,0.4-1.5,0.1c-0.9-0.3-1.8-0.5-2.6-1c-0.2,0-0.3,0-0.4,0.1
	c-0.4,0.2-0.7,0.5-1.1,0.5c-0.2,0-0.4,0-0.6,0c-0.2,0-0.4-0.1-0.6-0.1c-0.5,0-1.1,0-1.5-0.3c-0.1-0.1-0.3-0.1-0.4-0.2
	c-0.4-0.1-0.8-0.3-1.2-0.2c-0.4,0.1-0.6,0.5-0.8,0.8c-0.1,0-0.1,0-0.2,0c-0.2,0-0.4,0-0.7,0c-1-0.1-1.9-0.4-2.9,0c0,0,0,0.1,0,0.1
	c0,0,0,0,0,0c0,0,0,0,0,0c-2.5,0.3-4.9-1.2-7.4-0.4c-0.6,0-1.3-0.3-1.8,0.3c0,0,0,0,0,0c-1,0.2-1.8-0.7-2.8-0.6
	c-0.4-0.6-1.1-0.4-1.7-0.6c0,0.1-0.1,0.3-0.1,0.4c-0.5,0.5-1.3,0.5-1.9,1c-0.4,0.8,0,1.6,0,2.4c0.1,0.2,0.1,0.3,0.2,0.4
	c0,0.3,0,0.7,0,1c0.2,0.4,0.5,0.7,0.7,1.1c0.3-0.1,0.7-0.2,1-0.3c0,0,0,0,0,0c0.2,0.2,0.4,0.5,0.6,0.7c0.1,0.1,0.2,0.2,0.4,0.2
	c0.3,0.1,0.5,0.1,0.8,0c0.5,1,1.4,1.5,2.2,2.2c0.1,0.1,0.2,0.1,0.3,0.1c-0.1,0.5,0,1,0.4,1.3c0.1,0,0.2,0,0.3,0
	c-0.3,0.5-0.2,0.8,0.2,1.1c0.2,0.4,0.4,0.9,0.6,1.3c0,0,0.1,0,0.1,0c0,0.1,0.1,0.3,0.2,0.4c0.4,0.1,0.3,0.4,0.4,0.7
	c0.1,0,0.2-0.1,0.3-0.1l0,0c0.2,0.7,0.8,0.9,1.4,0.8c1.3-0.2,1.7,0.6,1.5,1.5c-0.2,1.1,0.3,1.8,0.9,2.5c0.1,0.1,0.1,0.1,0.2,0.1
	c0,0,0,0.1,0,0.1c0.2,0.8,0.2,1.5,0.5,2.3c0.1,0.1,0.2,0.2,0.4,0.3c0.4,0.1,0.8,0,1.1,0.4c0,0,0,0,0,0c0,0.3,0,0.6,0.4,0.7
	c0,0,0,0,0,0c0,0.1,0.1,0.2,0.1,0.3c-0.2,0-0.4,0.2-0.4,0.4c0,0.1,0,0.2,0,0.4c0.5,0.6,0.7,1.5,1.7,1.4c-0.8,0.7,0,0.9,0.4,1.2
	c0.3,0.2,1,0.3,0.5,0.9c-0.6,1.1,0.8,1.3,0.9,2.1c0.1,0.1,0.1,0.2,0.1,0.3c0.7,0.1,1.3,0.3,1.4,0.9c-0.1,0.1-0.1,0.2-0.2,0.2
	c-0.2,0.2-0.3,0.4-0.2,0.6c0.1,0.1,0.3,0.3,0.4,0.4c0,0.2-0.1,0.5-0.1,0.7c0,0,0,0,0,0c0,0,0,0,0,0C21,46.9,21,47.2,21,47.5
	c0.1,1.5,1.6,1.5,2.4,2.3c0.1,0.3,0.1,0.6,0.2,1c0.7,1,1.4,1.9,2.1,2.9c0,0.2,0,0.4,0,0.6c0.3,0.7,0.6,1.4,0.9,2.1
	c0,0,0,0.1-0.1,0.1c0,0.4,0.2,0.6,0.4,0.8c0.1,0,0.1,0,0.2,0.1c0.3,0.6,0.7,1.2,0.7,1.9h0c0,0,0,0,0,0c0,0.2,0,0.5,0,0.7
	c0.1,0.1,0.2,0.2,0.3,0.3c0.4,0.1,0.6,0.6,1,0.5c0.1,0.3,0.1,0.7,0.2,1v0c0,0-0.1,0-0.1,0c0.2,0.4-0.2,0.7-0.3,1
	c0.7-0.1,0.7,0.9,1.4,0.8c0.6,1.8,2.2,2.9,2.9,4.6c0.3,1.6,1.6,2.3,3.1,1.7c0,0,0,0,0,0c1.5-1.3,2.2-3,3-4.8c0.3-0.8,0.3-2,1.6-1.9
	c0.2-0.4-0.1-0.7-0.3-1.1c0.8-1.4,1.5-2.8,2-4.3l0,0c0,0,0,0,0,0c0-0.4,0.1-0.9,0.1-1.3c0.5-0.5,2.5,0.5,1.7-1.5h0c0,0,0,0,0,0
	c1.7-1.1,2.5-2.8,3.2-4.6c0.7,0,0.6-0.6,0.7-1c0-0.4,0-0.7,0-1.1c0.7-0.4,0.3-1.8,1.7-1.5c0.1-0.3,0.3-0.7,0.4-1c0,0,0,0,0,0
	c0,0,0,0,0,0c0.3-0.3,0.5-0.7,0.8-1c0.1-0.1,0.1-0.2,0.2-0.3c0.3-0.4,0.1-0.6-0.2-0.7c0.2-0.2,0.2-0.6,0.6-0.7
	c0.1-0.1,0.1-0.2,0.1-0.3c0.2,0,0.3-0.1,0.5-0.1c0.6-1,0.1-2.2,0.8-3.1c-0.2-1,0.4-1.7,0.8-2.4c0.2-0.4,0.2-0.9,0.8-1.2
	c0.8-0.4,0.2-0.5-0.1-0.7c0.1-0.1,0.1-0.2,0.2-0.4c0-0.1,0.1-0.2,0.2-0.3c0.3-0.3,0.6-0.6,0.9-1c0-0.2,0-0.4,0-0.6
	c0.1-0.1,0.1-0.2,0.2-0.3c0-0.1,0.1-0.3,0-0.4l0.1,0c0.4-0.3,0.3-0.9,0.6-1.3c0.2-0.4,0.8-0.7,0.6-1.2c0.1,0.1,0.3,0.2,0.5,0.3
	c0.5,0,1,0,1.5-0.2c0.3-0.3,0.5-0.5,0.8-0.8c-0.2-0.8,0.7-1.2,0.7-2c0.1-0.3,0.2-0.5,0.2-0.8c0.2-0.1,0.3-0.3,0.4-0.4
	c-0.2-0.9,0.3-1.5,0.8-2.1c0.2,0,0.4-0.1,0.6-0.1c0-0.2,0.5-0.4,0.1-0.7c0,0,0,0,0,0c0.1-0.2,0.2-0.4,0.4-0.5c0,0,0.1,0,0.1,0.1
	c0.3,0.1,0.5,0.3,0.9,0.2c0.1,0,0.2-0.1,0.4-0.1c0-0.1,0-0.2,0-0.3c0.2-0.2,0.2-0.4,0-0.7c-0.3,0-0.6,0-0.8-0.4c0,0,0,0,0,0
	c0-0.1,0.1-0.2,0.1-0.3c0.1,0,0.2,0,0.3,0c0.3,0,0.6-0.1,0.9-0.1c0,0,0.1,0,0.1,0c0.1,0.3,0.4,0.3,0.7,0.1c0.3-0.1,0.7-0.3,1-0.4
	c-0.1-0.6,0.5-1.3-0.3-1.7l0,0c0,0,0,0,0,0c-0.2,0-0.4-0.1-0.6-0.1c0-0.3-0.1-0.5,0.2-0.7c0.2-0.3,0-0.5-0.2-0.6
	C66.8,17.1,66.9,16.9,67,16.7z M56.5,16.3C56.4,16.3,56.4,16.3,56.5,16.3C56.4,16.3,56.4,16.3,56.5,16.3
	C56.4,16.3,56.5,16.3,56.5,16.3z M58.7,22C58.8,22.1,58.7,22.1,58.7,22C58.7,22,58.7,22,58.7,22C58.7,22,58.7,22,58.7,22z
	 M16.5,22.7c0-0.1,0.1-0.1,0.1-0.2C16.6,22.6,16.6,22.7,16.5,22.7z M24.5,47.1C24.5,47.1,24.5,47.1,24.5,47.1
	C24.5,47.1,24.5,47.1,24.5,47.1z M40.5,45.7L40.5,45.7C40.5,45.7,40.5,45.7,40.5,45.7c0-0.1,0.1,0,0.1,0
	C40.6,45.7,40.6,45.7,40.5,45.7z M25.7,53.5C25.7,53.5,25.7,53.5,25.7,53.5C25.7,53.5,25.7,53.5,25.7,53.5
	C25.7,53.5,25.7,53.5,25.7,53.5C25.7,53.5,25.7,53.5,25.7,53.5z M51.5,41.8C51.5,41.8,51.5,41.8,51.5,41.8c-0.1-0.1-0.1-0.1-0.1-0.1
	C51.5,41.7,51.5,41.8,51.5,41.8C51.5,41.8,51.5,41.8,51.5,41.8z M23,46.4c0,0,0,0.1-0.1,0.1c0,0-0.1-0.1-0.1-0.1
	C22.9,46.4,22.9,46.4,23,46.4z"/>
<g>
	<path class="st0" d="M5.5,3.9c0-0.9,0-1.8,0-2.7c0.6,0,1.1,0,1.7,0c0.1,0,0.3,0.2,0.3,0.4c0,2.6,0,5.2,0,7.8c0,0.3-0.1,0.4-0.4,0.4
		c-0.4,0-0.7,0-1.1,0c-0.2,0-0.4-0.2-0.6-0.3c-1.4,0.8-3.2,0.4-4-0.6c-1-1.1-1-3-0.1-4.3C2.1,3.4,3.7,3.1,5.5,3.9z M2.6,6.7
		c0,1,0.6,1.7,1.5,1.7c0.8,0,1.5-0.7,1.5-1.7c0-1-0.6-1.7-1.5-1.7C3.2,5,2.6,5.7,2.6,6.7z"/>
	<path class="st0" d="M57.4,4c1.8-1,3.5-0.3,4.3,0.7c0.9,1.2,0.8,3.1-0.1,4.2c-0.8,1-2.6,1.6-4.2,0.6c-0.5,0.7-1.3,0.2-1.9,0.4
		c0-2.9,0-5.7,0-8.6c0.6,0,1.2,0,1.9,0C57.4,2.1,57.4,3,57.4,4z M57.5,6.7c0,1,0.6,1.7,1.4,1.7c0.8,0,1.5-0.7,1.5-1.7
		c0-0.9-0.6-1.7-1.5-1.7C58,5,57.5,5.7,57.5,6.7z"/>
	<path class="st0" d="M34.1,9.7c-1.1,0.2-1.7,0.1-1.9-0.3c-0.8,0.6-1.7,0.7-2.5,0.5c-0.6-0.2-1.3-0.6-1.7-1c-1-1.1-0.9-3,0-4.2
		c0.9-1.2,2.4-1.5,4.2-0.7c0-0.9,0-1.7,0-2.6c0.7,0,1.3,0,1.9,0C34.1,4.1,34.1,6.9,34.1,9.7z M32.2,6.7c0-1-0.6-1.7-1.4-1.7
		c-0.8,0-1.5,0.7-1.5,1.6c0,0.9,0.6,1.7,1.5,1.7C31.6,8.4,32.2,7.7,32.2,6.7z"/>
	<path class="st0" d="M62.9,10.2c0.3,0.1,0.6,0.3,0.9,0.3c0.3,0,0.7-0.1,0.8-0.3c0.2-0.2,0.2-0.6,0.1-0.8C64,7.7,63.2,6,62.5,4.2
		c-0.1-0.2-0.1-0.3-0.2-0.6c0.6,0,1.2,0,1.8,0c0.1,0,0.3,0.3,0.4,0.4c0.5,1.1,0.9,2.3,1.5,3.5c0.5-1.2,1-2.3,1.4-3.4
		c0.2-0.5,0.4-0.7,0.9-0.6c0.4,0,0.7,0,1.2,0c-0.4,0.9-0.7,1.7-1,2.5c-0.6,1.5-1.2,3-1.9,4.4c-0.7,1.7-2.3,2-3.8,1.4
		c-0.4-0.1-0.6-0.4-0.3-0.8C62.6,10.9,62.7,10.6,62.9,10.2z"/>
	<path class="st0" d="M44.7,9.7c-0.6,0-1.2,0-1.9,0c0-2,0-4.1,0-6.2c0.7,0.1,1.4-0.3,2,0.3c0.5-0.1,1.1-0.3,1.8-0.4
		c1.3-0.2,2.6,0.7,2.7,2.5c0,1.1,0,2.2,0,3.3c0,0.3-0.1,0.5-0.5,0.5c-0.5,0-0.9,0-1.5,0c0-0.4,0-0.8,0-1.2c0-0.7,0-1.4,0-2
		c0-0.9-0.4-1.4-1.1-1.4c-0.8,0-1.3,0.5-1.3,1.4c0,0.8,0,1.7,0,2.5C44.7,9.3,44.7,9.5,44.7,9.7z"/>
	<path class="st0" d="M41.4,9c-0.7,0.3-1.2,0.7-1.8,0.8c-1.6,0.3-3,0.1-4-1.3c-0.7-1.1-0.8-2.2-0.2-3.4c0.6-1.1,1.6-1.7,2.8-1.7
		c1.8,0,2.9,0.8,3.3,2.3c0.1,0.4,0.1,0.9,0.1,1.3c-1.6,0-3,0-4.5,0c0.1,0.8,0.9,1.3,1.7,1.2c0.3,0,0.7-0.1,0.9-0.3
		c0.4-0.3,0.6-0.2,0.8,0.1C40.9,8.4,41.1,8.6,41.4,9z M39.8,6.1c-0.2-0.7-0.8-1.2-1.4-1.2c-0.7,0-1.2,0.5-1.3,1.2
		C38,6.1,38.9,6.1,39.8,6.1z"/>
	<path class="st0" d="M11.7,9.2c0.2-0.5,0.4-0.9,0.6-1.3c0.7,0.2,1.3,0.4,1.9,0.5c0.3,0.1,0.7,0,1-0.1c0.1,0,0.3-0.2,0.3-0.4
		c0-0.1-0.2-0.3-0.3-0.4c-0.5-0.1-1-0.2-1.4-0.3c-1.4-0.3-1.9-0.8-1.9-1.9c0-1,0.8-1.8,2-1.9C15,3.4,16.1,3.4,17.2,4
		c-0.2,0.5-0.4,0.9-0.6,1.3c-0.5-0.1-1-0.3-1.5-0.4c-0.3-0.1-0.7,0-1,0.1c-0.2,0-0.3,0.3-0.4,0.4c0.1,0.1,0.3,0.3,0.4,0.4
		c0.6,0.2,1.2,0.2,1.8,0.4c1,0.2,1.4,0.7,1.5,1.5c0.1,0.8-0.4,1.5-1.2,1.9C14.7,10.2,13.2,10,11.7,9.2z"/>
	<path class="st0" d="M17.7,9.2c0.2-0.5,0.4-0.9,0.6-1.2c0.7,0.2,1.3,0.4,1.9,0.5c0.3,0.1,0.7,0,1-0.1c0.1,0,0.3-0.2,0.3-0.3
		c0-0.1-0.2-0.3-0.3-0.4c-0.5-0.1-1-0.2-1.4-0.3c-1.4-0.3-1.9-0.8-1.9-1.8c0-1,0.7-1.8,2-2c1-0.2,2.1-0.1,3.1,0.3
		c0.1,0,0.2,0.1,0.3,0.2C23,4.5,22.8,5,22.6,5.4c-0.5-0.1-1-0.3-1.5-0.4c-0.1,0-0.2-0.1-0.3-0.1c-0.4,0.1-1,0-1.1,0.5
		c0,0.5,0.5,0.4,0.9,0.5c0.5,0.1,1,0.2,1.4,0.3c0.8,0.2,1.3,0.8,1.3,1.5c0.1,0.8-0.3,1.4-1,1.8C21.3,10.2,18.9,10,17.7,9.2z"/>
	<path class="st0" d="M50.7,3.7c0-0.5,0.1-1,0.1-1.4c0.6,0,1.2,0,1.9,0c0,0.5,0,0.9,0,1.4c0.6,0,1,0,1.6,0c0,0.5,0,0.9,0,1.4
		c-0.5,0-1,0-1.5,0c0,0.9,0,1.7,0,2.5c0,0.6,0.5,0.8,1,0.6c0.1,0,0.2-0.1,0.4-0.1c0.1,0.2,0.2,0.4,0.3,0.6c0.3,0.8,0.2,1-0.6,1.1
		c-0.5,0.1-1,0.1-1.5,0c-1.1-0.2-1.6-1-1.6-2.2c0-0.8,0-1.6,0-2.4c-0.3,0-0.6,0-0.9-0.1c0-0.4,0-0.9,0-1.3
		C50.1,3.7,50.4,3.7,50.7,3.7z"/>
	<path class="st0" d="M9,3.6c0.6,0,1.2,0,1.9,0c0,2,0,4,0,6.1c-0.6,0-1.2,0-1.9,0C9,7.7,9,5.7,9,3.6z"/>
	<path class="st0" d="M26.2,9.7c-0.6,0-1.2,0-1.9,0c0-2,0-4,0-6.1c0.6,0,1.2,0,1.9,0C26.2,5.7,26.2,7.7,26.2,9.7z"/>
	<path class="st0" d="M25.4,0.6c0.7,0,1.2,0.5,1.1,1.1c0,0.6-0.5,1-1.2,1c-0.7,0-1.2-0.4-1.2-1C24.1,1.1,24.6,0.6,25.4,0.6z"/>
	<path class="st0" d="M9.9,2.7c-0.7,0-1.2-0.4-1.2-1c0-0.6,0.5-1.1,1.2-1.1c0.7,0,1.2,0.4,1.2,1C11.1,2.3,10.6,2.7,9.9,2.7z"/>
</g>
</svg>
