<?xml version="1.0" encoding="utf-8"?>
<svg width="277" height="137" viewBox="0 0 277 137" fill="none" xmlns="http://www.w3.org/2000/svg">
<g clip-path="url(#clip0)">
<mask id="mask0" mask-type="alpha" maskUnits="userSpaceOnUse" x="23" y="0" width="125" height="124">
<circle cx="85.5178" cy="61.7271" r="61.7271" fill="#C4C4C4"/>
</mask>
<g mask="url(#mask0)">
<g filter="url(#filter0_d)">
<circle cx="85.5178" cy="47.907" r="20.7292" fill="white"/>
</g>
</g>
<mask id="mask1" mask-type="alpha" maskUnits="userSpaceOnUse" x="26" y="2" width="119" height="120">
<path d="M144.941 61.7256C144.941 89.4296 144.941 121.149 144.941 121.149C144.941 121.149 103.036 121.149 85.5176 121.149C67.9994 121.149 26.0938 121.149 26.0938 121.149C26.0938 121.149 26.0937 89.4299 26.0938 61.7256C26.0938 28.9067 52.6987 2.30176 85.5176 2.30176C118.336 2.30176 144.941 28.9067 144.941 61.7256Z" fill="white"/>
</mask>
<g mask="url(#mask1)">
<g filter="url(#filter1_d)">
<circle cx="85.5181" cy="111.477" r="43.7617" fill="white"/>
</g>
</g>
<g filter="url(#filter2_d)">
<circle cx="147.245" cy="47.9089" r="20.7292" fill="white"/>
</g>
<mask id="mask2" mask-type="alpha" maskUnits="userSpaceOnUse" x="87" y="2" width="120" height="120">
<path d="M206.669 61.7275C206.669 94.4239 206.669 121.151 206.669 121.151C206.669 121.151 173.972 121.151 147.245 121.151C130.668 121.151 87.821 121.151 87.821 121.151C87.821 121.151 87.821 91.1357 87.821 61.7275C87.821 28.9087 114.426 2.30371 147.245 2.30371C180.064 2.30371 206.669 28.9087 206.669 61.7275Z" fill="white"/>
</mask>
<g mask="url(#mask2)">
<g filter="url(#filter3_d)">
<circle cx="147.245" cy="111.479" r="43.7617" fill="white"/>
</g>
</g>
<mask id="mask3" mask-type="alpha" maskUnits="userSpaceOnUse" x="147" y="0" width="124" height="124">
<circle cx="208.972" cy="61.7271" r="61.7271" fill="#C4C4C4"/>
</mask>
<g mask="url(#mask3)">
<g filter="url(#filter4_d)">
<circle cx="208.972" cy="47.907" r="20.7292" fill="white"/>
</g>
</g>
<mask id="mask4" mask-type="alpha" maskUnits="userSpaceOnUse" x="149" y="2" width="120" height="120">
<path d="M268.396 61.7256C268.396 92.7579 268.396 121.149 268.396 121.149C268.396 121.149 237.363 121.149 208.972 121.149C180.832 121.149 149.548 121.149 149.548 121.149C149.548 121.149 149.548 93.0101 149.548 61.7256C149.548 28.9067 176.153 2.30176 208.972 2.30176C241.791 2.30176 268.396 28.9067 268.396 61.7256Z" fill="white"/>
</mask>
<g mask="url(#mask4)">
<g filter="url(#filter5_d)">
<circle cx="208.972" cy="111.477" r="43.7617" fill="white"/>
</g>
</g>
<mask id="mask5" mask-type="alpha" maskUnits="userSpaceOnUse" x="8" y="13" width="124" height="125">
<circle cx="69.7271" cy="75.3638" r="61.7271" fill="#C4C4C4"/>
</mask>
<g mask="url(#mask5)">
<g filter="url(#filter6_d)">
<circle cx="69.727" cy="61.5437" r="20.7292" fill="white"/>
</g>
</g>
<mask id="mask6" mask-type="alpha" maskUnits="userSpaceOnUse" x="10" y="15" width="120" height="120">
<path d="M129.151 75.3643C129.151 103.068 129.151 134.788 129.151 134.788C129.151 134.788 87.2452 134.788 69.7268 134.788C52.2086 134.788 10.303 134.788 10.303 134.788C10.303 134.788 10.303 103.069 10.303 75.3643C10.303 42.5454 36.9079 15.9404 69.7268 15.9404C102.546 15.9404 129.151 42.5454 129.151 75.3643Z" fill="white"/>
</mask>
<g mask="url(#mask6)">
<g filter="url(#filter7_d)">
<circle cx="69.7273" cy="125.113" r="43.7617" fill="white"/>
</g>
</g>
<g filter="url(#filter8_d)">
<circle cx="131.454" cy="61.5437" r="20.7292" fill="white"/>
</g>
<mask id="mask7" mask-type="alpha" maskUnits="userSpaceOnUse" x="72" y="15" width="119" height="120">
<path d="M190.878 75.3643C190.878 108.061 190.878 134.788 190.878 134.788C190.878 134.788 158.182 134.788 131.454 134.788C114.877 134.788 72.0303 134.788 72.0303 134.788C72.0303 134.788 72.0303 104.772 72.0303 75.3643C72.0303 42.5454 98.6352 15.9404 131.454 15.9404C164.273 15.9404 190.878 42.5454 190.878 75.3643Z" fill="white"/>
</mask>
<g mask="url(#mask7)">
<g filter="url(#filter9_d)">
<circle cx="131.455" cy="125.113" r="43.7617" fill="white"/>
</g>
</g>
<mask id="mask8" mask-type="alpha" maskUnits="userSpaceOnUse" x="131" y="13" width="124" height="125">
<circle cx="193.181" cy="75.3638" r="61.7271" fill="#C4C4C4"/>
</mask>
<g mask="url(#mask8)">
<g filter="url(#filter10_d)">
<circle cx="193.181" cy="61.5437" r="20.7292" fill="white"/>
</g>
</g>
<mask id="mask9" mask-type="alpha" maskUnits="userSpaceOnUse" x="133" y="15" width="120" height="120">
<path d="M252.605 75.3643C252.605 106.397 252.605 134.788 252.605 134.788C252.605 134.788 221.573 134.788 193.181 134.788C165.042 134.788 133.757 134.788 133.757 134.788C133.757 134.788 133.757 106.649 133.757 75.3643C133.757 42.5454 160.362 15.9404 193.181 15.9404C226 15.9404 252.605 42.5454 252.605 75.3643Z" fill="white"/>
</mask>
<g mask="url(#mask9)">
<g filter="url(#filter11_d)">
<circle cx="193.182" cy="125.113" r="43.7617" fill="white"/>
</g>
</g>
</g>
<defs>
<filter id="filter0_d" x="38.7886" y="6.17773" width="99.4585" height="99.4585" filterUnits="userSpaceOnUse" color-interpolation-filters="sRGB">
<feFlood flood-opacity="0" result="BackgroundImageFix"/>
<feColorMatrix in="SourceAlpha" type="matrix" values="0 0 0 0 0 0 0 0 0 0 0 0 0 0 0 0 0 0 127 0"/>
<feMorphology radius="12" operator="dilate" in="SourceAlpha" result="effect1_dropShadow"/>
<feOffset dx="3" dy="8"/>
<feGaussianBlur stdDeviation="8.5"/>
<feColorMatrix type="matrix" values="0 0 0 0 0 0 0 0 0 0 0 0 0 0 0 0 0 0 0.15 0"/>
<feBlend mode="normal" in2="BackgroundImageFix" result="effect1_dropShadow"/>
<feBlend mode="normal" in="SourceGraphic" in2="effect1_dropShadow" result="shape"/>
</filter>
<filter id="filter1_d" x="14.7563" y="44.7148" width="141.523" height="141.523" filterUnits="userSpaceOnUse" color-interpolation-filters="sRGB">
<feFlood flood-opacity="0" result="BackgroundImageFix"/>
<feColorMatrix in="SourceAlpha" type="matrix" values="0 0 0 0 0 0 0 0 0 0 0 0 0 0 0 0 0 0 127 0"/>
<feMorphology radius="5" operator="dilate" in="SourceAlpha" result="effect1_dropShadow"/>
<feOffset dy="4"/>
<feGaussianBlur stdDeviation="11"/>
<feColorMatrix type="matrix" values="0 0 0 0 0 0 0 0 0 0 0 0 0 0 0 0 0 0 0.25 0"/>
<feBlend mode="normal" in2="BackgroundImageFix" result="effect1_dropShadow"/>
<feBlend mode="normal" in="SourceGraphic" in2="effect1_dropShadow" result="shape"/>
</filter>
<filter id="filter2_d" x="100.516" y="6.17969" width="99.4585" height="99.4585" filterUnits="userSpaceOnUse" color-interpolation-filters="sRGB">
<feFlood flood-opacity="0" result="BackgroundImageFix"/>
<feColorMatrix in="SourceAlpha" type="matrix" values="0 0 0 0 0 0 0 0 0 0 0 0 0 0 0 0 0 0 127 0"/>
<feMorphology radius="12" operator="dilate" in="SourceAlpha" result="effect1_dropShadow"/>
<feOffset dx="3" dy="8"/>
<feGaussianBlur stdDeviation="8.5"/>
<feColorMatrix type="matrix" values="0 0 0 0 0 0 0 0 0 0 0 0 0 0 0 0 0 0 0.15 0"/>
<feBlend mode="normal" in2="BackgroundImageFix" result="effect1_dropShadow"/>
<feBlend mode="normal" in="SourceGraphic" in2="effect1_dropShadow" result="shape"/>
</filter>
<filter id="filter3_d" x="76.4836" y="44.7168" width="141.523" height="141.523" filterUnits="userSpaceOnUse" color-interpolation-filters="sRGB">
<feFlood flood-opacity="0" result="BackgroundImageFix"/>
<feColorMatrix in="SourceAlpha" type="matrix" values="0 0 0 0 0 0 0 0 0 0 0 0 0 0 0 0 0 0 127 0"/>
<feMorphology radius="5" operator="dilate" in="SourceAlpha" result="effect1_dropShadow"/>
<feOffset dy="4"/>
<feGaussianBlur stdDeviation="11"/>
<feColorMatrix type="matrix" values="0 0 0 0 0 0 0 0 0 0 0 0 0 0 0 0 0 0 0.25 0"/>
<feBlend mode="normal" in2="BackgroundImageFix" result="effect1_dropShadow"/>
<feBlend mode="normal" in="SourceGraphic" in2="effect1_dropShadow" result="shape"/>
</filter>
<filter id="filter4_d" x="162.243" y="6.17773" width="99.4585" height="99.4585" filterUnits="userSpaceOnUse" color-interpolation-filters="sRGB">
<feFlood flood-opacity="0" result="BackgroundImageFix"/>
<feColorMatrix in="SourceAlpha" type="matrix" values="0 0 0 0 0 0 0 0 0 0 0 0 0 0 0 0 0 0 127 0"/>
<feMorphology radius="12" operator="dilate" in="SourceAlpha" result="effect1_dropShadow"/>
<feOffset dx="3" dy="8"/>
<feGaussianBlur stdDeviation="8.5"/>
<feColorMatrix type="matrix" values="0 0 0 0 0 0 0 0 0 0 0 0 0 0 0 0 0 0 0.15 0"/>
<feBlend mode="normal" in2="BackgroundImageFix" result="effect1_dropShadow"/>
<feBlend mode="normal" in="SourceGraphic" in2="effect1_dropShadow" result="shape"/>
</filter>
<filter id="filter5_d" x="138.21" y="44.7148" width="141.523" height="141.523" filterUnits="userSpaceOnUse" color-interpolation-filters="sRGB">
<feFlood flood-opacity="0" result="BackgroundImageFix"/>
<feColorMatrix in="SourceAlpha" type="matrix" values="0 0 0 0 0 0 0 0 0 0 0 0 0 0 0 0 0 0 127 0"/>
<feMorphology radius="5" operator="dilate" in="SourceAlpha" result="effect1_dropShadow"/>
<feOffset dy="4"/>
<feGaussianBlur stdDeviation="11"/>
<feColorMatrix type="matrix" values="0 0 0 0 0 0 0 0 0 0 0 0 0 0 0 0 0 0 0.25 0"/>
<feBlend mode="normal" in2="BackgroundImageFix" result="effect1_dropShadow"/>
<feBlend mode="normal" in="SourceGraphic" in2="effect1_dropShadow" result="shape"/>
</filter>
<filter id="filter6_d" x="22.9978" y="19.8145" width="99.4585" height="99.4585" filterUnits="userSpaceOnUse" color-interpolation-filters="sRGB">
<feFlood flood-opacity="0" result="BackgroundImageFix"/>
<feColorMatrix in="SourceAlpha" type="matrix" values="0 0 0 0 0 0 0 0 0 0 0 0 0 0 0 0 0 0 127 0"/>
<feMorphology radius="12" operator="dilate" in="SourceAlpha" result="effect1_dropShadow"/>
<feOffset dx="3" dy="8"/>
<feGaussianBlur stdDeviation="8.5"/>
<feColorMatrix type="matrix" values="0 0 0 0 0 0 0 0 0 0 0 0 0 0 0 0 0 0 0.15 0"/>
<feBlend mode="normal" in2="BackgroundImageFix" result="effect1_dropShadow"/>
<feBlend mode="normal" in="SourceGraphic" in2="effect1_dropShadow" result="shape"/>
</filter>
<filter id="filter7_d" x="-1.03442" y="58.3516" width="141.523" height="141.523" filterUnits="userSpaceOnUse" color-interpolation-filters="sRGB">
<feFlood flood-opacity="0" result="BackgroundImageFix"/>
<feColorMatrix in="SourceAlpha" type="matrix" values="0 0 0 0 0 0 0 0 0 0 0 0 0 0 0 0 0 0 127 0"/>
<feMorphology radius="5" operator="dilate" in="SourceAlpha" result="effect1_dropShadow"/>
<feOffset dy="4"/>
<feGaussianBlur stdDeviation="11"/>
<feColorMatrix type="matrix" values="0 0 0 0 0 0 0 0 0 0 0 0 0 0 0 0 0 0 0.25 0"/>
<feBlend mode="normal" in2="BackgroundImageFix" result="effect1_dropShadow"/>
<feBlend mode="normal" in="SourceGraphic" in2="effect1_dropShadow" result="shape"/>
</filter>
<filter id="filter8_d" x="84.7251" y="19.8145" width="99.4585" height="99.4585" filterUnits="userSpaceOnUse" color-interpolation-filters="sRGB">
<feFlood flood-opacity="0" result="BackgroundImageFix"/>
<feColorMatrix in="SourceAlpha" type="matrix" values="0 0 0 0 0 0 0 0 0 0 0 0 0 0 0 0 0 0 127 0"/>
<feMorphology radius="12" operator="dilate" in="SourceAlpha" result="effect1_dropShadow"/>
<feOffset dx="3" dy="8"/>
<feGaussianBlur stdDeviation="8.5"/>
<feColorMatrix type="matrix" values="0 0 0 0 0 0 0 0 0 0 0 0 0 0 0 0 0 0 0.15 0"/>
<feBlend mode="normal" in2="BackgroundImageFix" result="effect1_dropShadow"/>
<feBlend mode="normal" in="SourceGraphic" in2="effect1_dropShadow" result="shape"/>
</filter>
<filter id="filter9_d" x="60.6929" y="58.3516" width="141.523" height="141.523" filterUnits="userSpaceOnUse" color-interpolation-filters="sRGB">
<feFlood flood-opacity="0" result="BackgroundImageFix"/>
<feColorMatrix in="SourceAlpha" type="matrix" values="0 0 0 0 0 0 0 0 0 0 0 0 0 0 0 0 0 0 127 0"/>
<feMorphology radius="5" operator="dilate" in="SourceAlpha" result="effect1_dropShadow"/>
<feOffset dy="4"/>
<feGaussianBlur stdDeviation="11"/>
<feColorMatrix type="matrix" values="0 0 0 0 0 0 0 0 0 0 0 0 0 0 0 0 0 0 0.25 0"/>
<feBlend mode="normal" in2="BackgroundImageFix" result="effect1_dropShadow"/>
<feBlend mode="normal" in="SourceGraphic" in2="effect1_dropShadow" result="shape"/>
</filter>
<filter id="filter10_d" x="146.452" y="19.8145" width="99.4585" height="99.4585" filterUnits="userSpaceOnUse" color-interpolation-filters="sRGB">
<feFlood flood-opacity="0" result="BackgroundImageFix"/>
<feColorMatrix in="SourceAlpha" type="matrix" values="0 0 0 0 0 0 0 0 0 0 0 0 0 0 0 0 0 0 127 0"/>
<feMorphology radius="12" operator="dilate" in="SourceAlpha" result="effect1_dropShadow"/>
<feOffset dx="3" dy="8"/>
<feGaussianBlur stdDeviation="8.5"/>
<feColorMatrix type="matrix" values="0 0 0 0 0 0 0 0 0 0 0 0 0 0 0 0 0 0 0.15 0"/>
<feBlend mode="normal" in2="BackgroundImageFix" result="effect1_dropShadow"/>
<feBlend mode="normal" in="SourceGraphic" in2="effect1_dropShadow" result="shape"/>
</filter>
<filter id="filter11_d" x="122.42" y="58.3516" width="141.523" height="141.523" filterUnits="userSpaceOnUse" color-interpolation-filters="sRGB">
<feFlood flood-opacity="0" result="BackgroundImageFix"/>
<feColorMatrix in="SourceAlpha" type="matrix" values="0 0 0 0 0 0 0 0 0 0 0 0 0 0 0 0 0 0 127 0"/>
<feMorphology radius="5" operator="dilate" in="SourceAlpha" result="effect1_dropShadow"/>
<feOffset dy="4"/>
<feGaussianBlur stdDeviation="11"/>
<feColorMatrix type="matrix" values="0 0 0 0 0 0 0 0 0 0 0 0 0 0 0 0 0 0 0.25 0"/>
<feBlend mode="normal" in2="BackgroundImageFix" result="effect1_dropShadow"/>
<feBlend mode="normal" in="SourceGraphic" in2="effect1_dropShadow" result="shape"/>
</filter>
<clipPath id="clip0">
<rect width="277" height="137" fill="white"/>
</clipPath>
</defs>
</svg>
