<?xml version="1.0" encoding="utf-8"?>
<svg width="90" height="150" viewBox="0 0 111 149" fill="none"
     xmlns="http://www.w3.org/2000/svg">
    <rect width="111" height="149" rx="7" fill="#FF5C01"/>
    <path d="M17.0518 110.658V115H13.9668V102.203H19.0732C20.0518 102.203 20.916 102.385 21.666 102.748C22.4219 103.105 23.0049 103.618 23.415 104.286C23.8311 104.948 24.0391 105.701 24.0391 106.545C24.0391 107.793 23.5908 108.792 22.6943 109.542C21.8037 110.286 20.5791 110.658 19.0205 110.658H17.0518ZM17.0518 108.276H19.0732C19.6709 108.276 20.125 108.127 20.4355 107.828C20.752 107.529 20.9102 107.107 20.9102 106.562C20.9102 105.965 20.749 105.487 20.4268 105.13C20.1045 104.772 19.665 104.591 19.1084 104.585H17.0518V108.276ZM31.3955 112.609H27.168L26.4297 115H23.1338L27.8271 102.203H30.7275L35.4561 115H32.1426L31.3955 112.609ZM27.9062 110.228H30.6572L29.2773 105.789L27.9062 110.228ZM42.9971 111.599C42.9971 111.147 42.8359 110.796 42.5137 110.544C42.1973 110.292 41.6377 110.031 40.835 109.762C40.0322 109.492 39.376 109.231 38.8662 108.979C37.208 108.165 36.3789 107.046 36.3789 105.622C36.3789 104.913 36.584 104.289 36.9941 103.75C37.4102 103.205 37.9961 102.783 38.752 102.484C39.5078 102.18 40.3574 102.027 41.3008 102.027C42.2207 102.027 43.0439 102.191 43.7705 102.52C44.5029 102.848 45.0713 103.316 45.4756 103.926C45.8799 104.529 46.082 105.221 46.082 106H43.0059C43.0059 105.479 42.8447 105.074 42.5225 104.787C42.2061 104.5 41.7754 104.356 41.2305 104.356C40.6797 104.356 40.2432 104.479 39.9209 104.726C39.6045 104.966 39.4463 105.273 39.4463 105.648C39.4463 105.977 39.6221 106.275 39.9736 106.545C40.3252 106.809 40.9434 107.084 41.8281 107.371C42.7129 107.652 43.4395 107.957 44.0078 108.285C45.3906 109.082 46.082 110.181 46.082 111.581C46.082 112.7 45.6602 113.579 44.8164 114.218C43.9727 114.856 42.8154 115.176 41.3447 115.176C40.3076 115.176 39.3672 114.991 38.5234 114.622C37.6855 114.247 37.0527 113.737 36.625 113.093C36.2031 112.442 35.9922 111.695 35.9922 110.852H39.0859C39.0859 111.537 39.2617 112.044 39.6133 112.372C39.9707 112.694 40.5479 112.855 41.3447 112.855C41.8545 112.855 42.2559 112.747 42.5488 112.53C42.8477 112.308 42.9971 111.997 42.9971 111.599ZM50.749 110.658V115H47.6641V102.203H52.7705C53.749 102.203 54.6133 102.385 55.3633 102.748C56.1191 103.105 56.7021 103.618 57.1123 104.286C57.5283 104.948 57.7363 105.701 57.7363 106.545C57.7363 107.793 57.2881 108.792 56.3916 109.542C55.501 110.286 54.2764 110.658 52.7178 110.658H50.749ZM50.749 108.276H52.7705C53.3682 108.276 53.8223 108.127 54.1328 107.828C54.4492 107.529 54.6074 107.107 54.6074 106.562C54.6074 105.965 54.4463 105.487 54.124 105.13C53.8018 104.772 53.3623 104.591 52.8057 104.585H50.749V108.276ZM70.2256 108.865C70.2256 110.113 69.9941 111.218 69.5312 112.179C69.0684 113.14 68.4092 113.881 67.5537 114.402C66.7041 114.918 65.7344 115.176 64.6445 115.176C63.5547 115.176 62.5879 114.927 61.7441 114.429C60.9004 113.925 60.2412 113.207 59.7666 112.275C59.2979 111.344 59.0518 110.274 59.0283 109.067V108.347C59.0283 107.093 59.2568 105.988 59.7139 105.033C60.1768 104.072 60.8359 103.331 61.6914 102.81C62.5527 102.288 63.5312 102.027 64.627 102.027C65.7109 102.027 66.6777 102.285 67.5273 102.801C68.377 103.316 69.0361 104.052 69.5049 105.007C69.9795 105.956 70.2197 107.046 70.2256 108.276V108.865ZM67.0879 108.329C67.0879 107.058 66.874 106.094 66.4463 105.438C66.0244 104.775 65.418 104.444 64.627 104.444C63.0801 104.444 62.2627 105.604 62.1748 107.925L62.166 108.865C62.166 110.119 62.374 111.083 62.79 111.757C63.2061 112.431 63.8242 112.768 64.6445 112.768C65.4238 112.768 66.0244 112.437 66.4463 111.774C66.8682 111.112 67.082 110.16 67.0879 108.918V108.329ZM76.5713 110.482H74.9014V115H71.8164V102.203H76.8525C78.3701 102.203 79.5566 102.54 80.4121 103.214C81.2676 103.888 81.6953 104.84 81.6953 106.07C81.6953 106.961 81.5137 107.699 81.1504 108.285C80.793 108.871 80.2305 109.346 79.4629 109.709L82.1348 114.868V115H78.8301L76.5713 110.482ZM74.9014 108.101H76.8525C77.4385 108.101 77.8779 107.948 78.1709 107.644C78.4697 107.333 78.6191 106.902 78.6191 106.352C78.6191 105.801 78.4697 105.37 78.1709 105.06C77.8721 104.743 77.4326 104.585 76.8525 104.585H74.9014V108.101ZM93.165 104.585H89.3242V115H86.2393V104.585H82.4688V102.203H93.165V104.585Z"
          fill="white"/>
</svg>
